<svg xmlns="http://www.w3.org/2000/svg" viewBox="0 0 512 512" fill="none">
  <circle cx="256" cy="256" r="256" fill="#064e3b"/> <!-- primary-900 -->
  <path d="M368 256c0 79.529-64.471 144-144 144s-144-64.471-144-144 144-64.471 144-144c0-14.869-2.253-29.28-6.432-42.864C137.943 89.022 80 165.659 80 256c0 97.2 78.8 176 176 176 90.341 0 166.978-57.943 186.864-137.568-13.584-4.179-27.995-6.432-42.864-6.432z" fill="#fdfaf5"/>
  <path d="M368 288l-23.51-12.36-23.51 12.36 4.49-26.18-19.02-18.54 26.29-3.82 11.75-23.82 11.75 23.82 26.29 3.82-19.02 18.54 4.49 26.18z" fill="#fbbf24"/>
</svg>
